<?xml version="1.0" encoding="utf-8"?>
<!-- Generator: Adobe Illustrator 16.0.4, SVG Export Plug-In . SVG Version: 6.00 Build 0)  -->
<!DOCTYPE svg PUBLIC "-//W3C//DTD SVG 1.1//EN" "http://www.w3.org/Graphics/SVG/1.1/DTD/svg11.dtd">
<svg version="1.1" id="Layer_1" xmlns="http://www.w3.org/2000/svg" xmlns:xlink="http://www.w3.org/1999/xlink" x="0px" y="0px"
	 width="226.771px" height="226.772px" viewBox="0 0 226.771 226.772" enable-background="new 0 0 226.771 226.772"
	 xml:space="preserve">
<rect x="0" width="226.771" height="226.772"/>
<g>
	<path fill="#FFFFFF" d="M143.861,171.629l-9.061-25.702H92.624l-9.062,25.702H58.849l44.155-115.325h22.405l43.823,115.325H143.861
		z M119.479,103.092c-2.307-6.755-4.613-13.674-5.768-17.958c-1.152,4.284-3.458,11.203-5.766,17.958l-7.414,20.924h26.361
		L119.479,103.092z"/>
</g>
<path fill="#FFFFFF" d="M54.073,117.154c-0.543,1.617-2.294,2.487-3.911,1.944L18,108.305c-1.616-0.542-2.489-2.293-1.946-3.91
	l2.675-7.969c0.543-1.616,2.294-2.487,3.911-1.944l32.161,10.794c1.618,0.543,2.49,2.293,1.947,3.91L54.073,117.154z"/>
<path fill="#FFFFFF" d="M52.318,142.405c0.542,1.617-0.33,3.369-1.949,3.91l-22.909,8.132c-1.618,0.541-3.367-0.331-3.909-1.948
	l-2.669-7.97c-0.541-1.617,0.331-3.369,1.95-3.909l22.909-8.133c1.617-0.541,3.367,0.331,3.909,1.948L52.318,142.405z"/>
<path fill="#FFFFFF" d="M46.013,68.862c-1.35,1.042-1.598,2.982-0.554,4.333l14.518,19.499c1.045,1.35,2.982,1.598,4.333,0.555
	l6.649-5.14c1.35-1.044,1.599-2.983,0.555-4.333l-14.519-19.5c-1.043-1.349-2.982-1.597-4.333-0.554L46.013,68.862z"/>
<path fill="#FFFFFF" d="M173.775,117.154c0.543,1.617,2.294,2.487,3.911,1.944l32.164-10.794c1.615-0.542,2.487-2.293,1.944-3.91
	l-2.675-7.969c-0.543-1.616-2.294-2.487-3.911-1.944l-32.161,10.794c-1.617,0.543-2.49,2.293-1.947,3.91L173.775,117.154z"/>
<path fill="#FFFFFF" d="M175.531,142.405c-0.543,1.617,0.33,3.369,1.949,3.91l22.908,8.132c1.62,0.541,3.369-0.331,3.909-1.948
	l2.669-7.97c0.543-1.617-0.33-3.369-1.949-3.909l-22.908-8.133c-1.618-0.541-3.369,0.331-3.909,1.948L175.531,142.405z"/>
<path fill="#FFFFFF" d="M181.837,68.862c1.349,1.042,1.598,2.982,0.553,4.333l-14.518,19.499c-1.045,1.35-2.981,1.598-4.332,0.555
	l-6.65-5.14c-1.35-1.044-1.599-2.983-0.554-4.333l14.518-19.5c1.043-1.349,2.983-1.597,4.333-0.554L181.837,68.862z"/>
</svg>
